{"title":"The Clique (2008)-Hover_man","uid":8169874,"size":937886780,"categoryP":"video","categoryS":"movies","magnet":"?xt=urn:btih:16ce537cf8e5053abb924c83a5acd9e45e90c232&amp;dn=The+Clique+%282008%29-Hover_man&amp;tr=udp%3A%2F%2Ftracker.openbittorrent.com%3A80&amp;tr=udp%3A%2F%2Fopen.demonii.com%3A1337&amp;tr=udp%3A%2F%2Ftracker.coppersurfer.tk%3A6969&amp;tr=udp%3A%2F%2Fexodus.desync.com%3A6969","seeders":1,"leechers":0,"uploader":"Hover_man","files":-1,"time":1361404298,"description":"The Clique (2008)\n\nA young girl tries to fit in with a clique of popular middle school girls after moving into the guest house of one of their homes. \n\nIMDB  Link - http://www.imdb.com/title/tt1059905/?ref_=fn_al_tt_4\n\nWikipedia Link - http://en.wikipedia.org/wiki/The_Clique_%28film%29\n\nGeneral\nComplete name:The Clique_ZenLover.mp4\nFormat: MPEG-4\nFormat profile: Base Media\nCodec ID: isom\nFile size: 894 MiB\nDuration: 1h 27mn\nOverall bit rate: 1 433 Kbps\nMovie name: THE_CLIQUE\nGenre: Comedy\nWriting application: Lavf54.46.100\n\nVideo\nID: 1\nFormat: MPEG-4 Visual\nFormat settings, BVOP: No\nFormat settings, QPel: No\nFormat settings, GMC: No warppoints\nFormat settings, Matrix: Default (H.263)\nCodec ID: 20\nDuration: 1h 27mn\nBit rate mode: Constant\nBit rate: 1 299 Kbps\nWidth: 720 pixels\nHeight: 404 pixels\nDisplay aspect ratio: 16:9\nFrame rate mode: Constant\nFrame rate: 29.970 fps\nColor space: YUV\nChroma sub-sample: 4:2:0\nBit depth: 8 bits\nScan type: Progressive\nCompression mode: Lossy\nBits/(Pixel*Frame): 0.149\nStream size: 810 MiB (91%)\nWriting library: Lavc54.79.100\n\nAudio\nID :2\nFormat: AAC\nFormat/Info: Advanced Audio Codec\nFormat profile: LC\nCodec ID: 40\nDuration: 1h 27mn\nBit rate mode: Constant\nBit rate :128 Kbps\nChannel(s): 2 channels\nChannel positions: Front: L R\nSampling rate: 44.1 KHz\nCompression mode: Lossy\nStream size: 79.7 MiB (9%)\n\nPlease seed as long as possible, Thank you. Comments most welcome in order to improve future torrents.\n\nRegards\nHover_man","torrent":{"xt":"urn:btih:16ce537cf8e5053abb924c83a5acd9e45e90c232","amp;dn":"The+Clique+%282008%29-Hover_man","amp;tr":["udp%3A%2F%2Ftracker.openbittorrent.com%3A80","udp%3A%2F%2Fopen.demonii.com%3A1337","udp%3A%2F%2Ftracker.coppersurfer.tk%3A6969","udp%3A%2F%2Fexodus.desync.com%3A6969"],"infoHash":"16ce537cf8e5053abb924c83a5acd9e45e90c232","infoHashBuffer":{"type":"Buffer","data":[22,206,83,124,248,229,5,58,187,146,76,131,165,172,217,228,94,144,194,50]},"announce":[],"urlList":[]}}